<svg width="120" height="24" viewBox="0 0 120 24" fill="none" xmlns="http://www.w3.org/2000/svg">
<path d="M80.2354 0.48584C84.6881 0.48584 88.6429 1.981 90.6035 3.14404L87.4463 7.19873C86.0174 6.36798 83.2925 5.07178 80.1025 5.07178C78.3415 5.07188 76.8135 5.86957 76.8135 7.26514C76.8139 8.79334 79.3059 8.9261 81.665 9.15869C85.6526 9.42454 91.9326 9.95682 91.9326 15.8716C91.9325 21.3543 87.4134 23.5141 81.9639 23.5142C76.4478 23.5142 72.5597 21.421 69.9346 19.4937L73.0586 15.5386C74.554 16.602 78.0097 18.9614 81.8643 18.9614C84.5558 18.9614 86.1172 17.7985 86.1172 16.3696C86.1171 14.8079 84.2561 14.5085 81.4648 14.2759C76.6134 13.8771 70.9981 13.3789 70.998 7.56396C70.998 2.18091 76.0153 0.485962 80.2354 0.48584ZM108.303 0.48584C112.755 0.485847 116.709 1.98104 118.67 3.14404L115.514 7.19873C114.085 6.36799 111.36 5.07181 108.17 5.07178C106.409 5.07178 104.88 5.86948 104.88 7.26514C104.88 8.79331 107.372 8.92611 109.731 9.15869C113.719 9.42453 120 9.95666 120 15.8716C120 21.3543 115.48 23.5142 110.03 23.5142C104.515 23.5141 100.627 21.4209 98.002 19.4937L101.125 15.5386C102.62 16.6019 106.076 18.9613 109.931 18.9614C112.622 18.9614 114.185 17.7985 114.185 16.3696C114.184 14.8079 112.323 14.5085 109.532 14.2759C104.681 13.8771 99.0646 13.3791 99.0645 7.56396C99.0645 2.18072 104.083 0.48584 108.303 0.48584ZM12.8936 1.15088C15.7842 1.15095 17.9443 1.98096 19.2734 3.40967C20.1042 4.30686 20.5693 5.4039 20.5693 6.53369C20.5693 8.22841 19.5062 9.7907 17.8779 10.7876C20.3699 11.9506 21.666 13.7116 21.666 16.104C21.666 17.9316 20.9014 19.5268 19.6387 20.7896C18.0437 22.2848 16.1828 22.8501 13.3916 22.8501H0V1.15088H12.8936ZM36.2168 17.9653H48.4121V22.8501H30.4023V1.15088H36.2168V17.9653ZM61.8818 22.8501H56.0674V1.15088H61.8818V22.8501ZM5.84863 18.2974H12.9268C13.8902 18.2973 14.5876 18.0642 15.0195 17.6323C15.4183 17.2336 15.6513 16.6689 15.6514 16.0376C15.6514 15.4395 15.4183 14.8748 15.0195 14.4761C14.4879 13.9445 13.8902 13.7447 12.9268 13.7446H5.84863V18.2974ZM5.84863 9.55811H12.1621C13.0593 9.55811 13.6579 9.35823 14.0566 8.95947C14.3888 8.62719 14.5879 8.16191 14.5879 7.63037C14.5879 7.09883 14.3888 6.66674 14.0566 6.33447C13.6911 5.96894 13.2255 5.70264 12.1621 5.70264H5.84863V9.55811Z" fill="#1C1C1C"/>
</svg>
