<svg width="12" height="12" viewBox="0 0 12 12" fill="none" xmlns="http://www.w3.org/2000/svg">
<path d="M1.98448 7.23472L5.73448 3.48472C5.76931 3.44986 5.81066 3.4222 5.85619 3.40333C5.90171 3.38445 5.95051 3.37474 5.99979 3.37474C6.04907 3.37474 6.09787 3.38445 6.14339 3.40333C6.18892 3.4222 6.23028 3.44986 6.2651 3.48472L10.0151 7.23472C10.0855 7.30509 10.125 7.40052 10.125 7.50004C10.125 7.59955 10.0855 7.69498 10.0151 7.76535C9.94474 7.83571 9.8493 7.87524 9.74979 7.87524C9.65028 7.87524 9.55484 7.83571 9.48448 7.76535L5.99979 4.28019L2.5151 7.76535C2.48026 7.80019 2.4389 7.82783 2.39338 7.84668C2.34786 7.86554 2.29906 7.87524 2.24979 7.87524C2.20052 7.87524 2.15173 7.86554 2.1062 7.84668C2.06068 7.82783 2.01932 7.80019 1.98448 7.76535C1.94964 7.73051 1.922 7.68914 1.90314 7.64362C1.88429 7.5981 1.87458 7.54931 1.87458 7.50004C1.87458 7.45076 1.88429 7.40197 1.90314 7.35645C1.922 7.31093 1.94964 7.26956 1.98448 7.23472Z" fill="black"/>
</svg>
