<svg width="24" height="24" viewBox="0 0 24 24" fill="none" xmlns="http://www.w3.org/2000/svg">
<path d="M22.5001 12.0656C22.4645 17.3615 18.1445 21.6965 12.8495 21.749C12.0302 21.7577 11.2132 21.6632 10.4176 21.4678C10.3697 21.4558 10.3247 21.4346 10.2851 21.4052C10.2454 21.3758 10.212 21.3389 10.1866 21.2966C10.1613 21.2543 10.1445 21.2073 10.1374 21.1585C10.1302 21.1097 10.1327 21.06 10.1448 21.0122L10.9548 17.7731C11.7448 18.169 12.6164 18.3751 13.5001 18.375C16.9688 18.375 19.7532 15.239 19.4823 11.4975C19.4088 10.5263 19.126 9.5826 18.6534 8.73107C18.1807 7.87953 17.5294 7.14035 16.7442 6.56428C15.9589 5.98821 15.0583 5.58888 14.1041 5.39372C13.15 5.19856 12.1649 5.21219 11.2165 5.43367C10.2681 5.65514 9.37888 6.07922 8.60985 6.67679C7.84082 7.27437 7.21021 8.03128 6.76131 8.89556C6.31241 9.75984 6.05585 10.711 6.00925 11.6838C5.96265 12.6566 6.12711 13.628 6.49134 14.5312C6.52917 14.6254 6.58575 14.711 6.65764 14.7827C6.72953 14.8544 6.81523 14.9108 6.90955 14.9484C7.00388 14.986 7.10485 15.0041 7.20636 15.0015C7.30787 14.9989 7.4078 14.9757 7.50009 14.9334C7.6761 14.8481 7.81291 14.6988 7.8826 14.516C7.95229 14.3333 7.9496 14.1308 7.87509 13.95C7.59477 13.247 7.46974 12.4918 7.50857 11.736C7.5474 10.9802 7.74917 10.2417 8.10005 9.57121C8.45093 8.90069 8.94262 8.31395 9.54144 7.8512C10.1403 7.38844 10.832 7.06063 11.5694 6.8902C12.3067 6.71978 13.0722 6.71078 13.8133 6.86382C14.5545 7.01686 15.2538 7.32832 15.8633 7.77686C16.4729 8.22541 16.9782 8.80043 17.3448 9.46251C17.7113 10.1246 17.9304 10.8581 17.987 11.6128C18.1876 14.475 16.0998 16.875 13.5001 16.875C12.7355 16.8746 11.9855 16.6659 11.3307 16.2712L12.7276 10.6818C12.772 10.4902 12.7394 10.2888 12.6368 10.1211C12.5341 9.95328 12.3697 9.83253 12.1789 9.78483C11.9881 9.73712 11.7861 9.76629 11.6166 9.86603C11.4471 9.96578 11.3236 10.1281 11.2726 10.3181L8.75446 20.3915C8.74079 20.4464 8.71489 20.4974 8.6787 20.5409C8.64252 20.5843 8.59698 20.619 8.5455 20.6423C8.49402 20.6657 8.43792 20.6771 8.38141 20.6757C8.32489 20.6743 8.26942 20.6602 8.21915 20.6343C6.62861 19.7997 5.29955 18.542 4.37859 16.9998C3.45764 15.4577 2.98059 13.6911 3.00009 11.895C3.05634 6.61121 7.3754 2.29871 12.6563 2.24996C13.9501 2.23749 15.2335 2.48266 16.4316 2.97117C17.6297 3.45969 18.7185 4.18178 19.6347 5.09536C20.5509 6.00895 21.2761 7.09575 21.7681 8.29244C22.26 9.48913 22.5089 10.7718 22.5001 12.0656Z" fill="#1C1C1C"/>
</svg>
