<svg width="25" height="25" viewBox="0 0 25 25" fill="none" xmlns="http://www.w3.org/2000/svg">
<path d="M21.7949 12.6551C21.7949 12.9535 21.6764 13.2396 21.4654 13.4506C21.2544 13.6616 20.9683 13.7801 20.6699 13.7801H4.16992C3.87155 13.7801 3.58541 13.6616 3.37443 13.4506C3.16345 13.2396 3.04492 12.9535 3.04492 12.6551C3.04492 12.3567 3.16345 12.0706 3.37443 11.8596C3.58541 11.6486 3.87155 11.5301 4.16992 11.5301H20.6699C20.9683 11.5301 21.2544 11.6486 21.4654 11.8596C21.6764 12.0706 21.7949 12.3567 21.7949 12.6551ZM4.16992 7.78009H20.6699C20.9683 7.78009 21.2544 7.66156 21.4654 7.45059C21.6764 7.23961 21.7949 6.95346 21.7949 6.65509C21.7949 6.35672 21.6764 6.07057 21.4654 5.8596C21.2544 5.64862 20.9683 5.53009 20.6699 5.53009H4.16992C3.87155 5.53009 3.58541 5.64862 3.37443 5.8596C3.16345 6.07057 3.04492 6.35672 3.04492 6.65509C3.04492 6.95346 3.16345 7.23961 3.37443 7.45059C3.58541 7.66156 3.87155 7.78009 4.16992 7.78009ZM20.6699 17.5301H4.16992C3.87155 17.5301 3.58541 17.6486 3.37443 17.8596C3.16345 18.0706 3.04492 18.3567 3.04492 18.6551C3.04492 18.9535 3.16345 19.2396 3.37443 19.4506C3.58541 19.6616 3.87155 19.7801 4.16992 19.7801H20.6699C20.9683 19.7801 21.2544 19.6616 21.4654 19.4506C21.6764 19.2396 21.7949 18.9535 21.7949 18.6551C21.7949 18.3567 21.6764 18.0706 21.4654 17.8596C21.2544 17.6486 20.9683 17.5301 20.6699 17.5301Z" fill="#1C1C1C"/>
</svg>
